<?xml version="1.0" encoding="iso-8859-1"?>
<!-- Generator: Adobe Illustrator 24.0.1, SVG Export Plug-In . SVG Version: 6.00 Build 0)  -->
<svg version="1.1" id="Layer_1" xmlns="http://www.w3.org/2000/svg" xmlns:xlink="http://www.w3.org/1999/xlink" x="0px" y="0px"
	 viewBox="0 0 50 50" style="enable-background:new 0 0 50 50;" xml:space="preserve">
<style type="text/css">
	.st0{fill:#060000;}
</style>
<path class="st0" d="M47.1,0H2.9C1.3,0,0,1.3,0,2.9v44.3C0,48.7,1.3,50,2.9,50h44.3c1.6,0,2.9-1.3,2.9-2.9V2.9C50,1.3,48.7,0,47.1,0
	z M42.3,28h-6.8v18.3h-7V28h-4.8v-6.6h4.8v-5.6c0-4.4,2.9-8.5,9.5-8.5c2.7,0,4.6,0.3,4.6,0.3l-0.2,6.2c0,0-2,0-4.2,0
	c-2.4,0-2.8,1.1-2.8,2.9v4.8h7.2L42.3,28z"/>
</svg>
