<?xml version="1.0" encoding="iso-8859-1"?>
<!-- Generator: Adobe Illustrator 24.0.1, SVG Export Plug-In . SVG Version: 6.00 Build 0)  -->
<svg version="1.1" id="Layer_1" xmlns="http://www.w3.org/2000/svg" xmlns:xlink="http://www.w3.org/1999/xlink" x="0px" y="0px"
	 viewBox="0 0 50 50" style="enable-background:new 0 0 50 50;" xml:space="preserve">
<path d="M45,0H5C2.3,0,0,2.2,0,5v40c0,2.8,2.3,5,5,5H45c2.8,0,5-2.2,5-5V5C50,2.2,47.7,0,45,0z M16,39.6H9.3V18.2H16V39.6z
	 M12.6,15.5c-2.1,0-3.5-1.5-3.5-3.3c0-1.9,1.4-3.3,3.6-3.3c2.2,0,3.5,1.4,3.5,3.3C16.3,14.1,14.9,15.5,12.6,15.5z M40.6,39.6h-6.7
	V27.7c0-2.8-1-4.6-3.4-4.6c-1.9,0-3,1.3-3.5,2.5c-0.2,0.4-0.2,1-0.2,1.7v12.3h-6.7V25c0-2.7-0.1-4.9-0.2-6.8h5.8l0.3,3h0.1
	c0.9-1.4,3.1-3.5,6.7-3.5c4.4,0,7.7,2.9,7.7,9.2V39.6z"/>
</svg>
